<svg width="232" height="231" viewBox="0 0 232 231" fill="none" xmlns="http://www.w3.org/2000/svg">
<path d="M35.7066 45.6647C34.8934 46.5453 34.5043 47.4227 34.5391 48.297C34.587 49.157 35.066 50.1914 35.9761 51.4002C36.0045 51.4264 35.9794 51.4822 35.9007 51.5674C35.8351 51.6384 35.7881 51.6608 35.7597 51.6346C35.6013 51.4356 35.3718 51.1712 35.0714 50.8411C34.7567 50.4979 34.4207 50.135 34.0635 49.7525C33.7193 49.3557 33.3762 48.9863 33.0342 48.6442C32.6912 48.2748 32.406 47.9852 32.1787 47.7753C32.1077 47.7097 32.105 47.6414 32.1706 47.5704C32.2493 47.4852 32.3241 47.4754 32.3952 47.5409C32.5372 47.6721 32.7093 47.6995 32.9115 47.623C33.0995 47.5334 33.2863 47.4165 33.4721 47.2723C33.6569 47.1008 33.8082 46.9511 33.9263 46.8233C35.0969 45.6411 36.4363 44.2332 37.9446 42.5998C38.8759 41.5913 39.6033 40.7893 40.1268 40.1939C40.6493 39.5711 41.1663 38.9827 41.6778 38.4287C42.1237 37.9458 42.4363 37.5503 42.6156 37.2421C42.7938 36.9067 42.802 36.5985 42.6403 36.3177C42.5966 36.251 42.6076 36.1821 42.6732 36.1111C42.7387 36.0401 42.7999 36.0308 42.8567 36.0833C43.0567 36.2942 43.3282 36.5844 43.6713 36.9538C44.0143 37.3233 44.3782 37.6987 44.7628 38.0801C45.1474 38.4616 45.5035 38.8168 45.8313 39.1458C46.1591 39.4748 46.4153 39.7245 46.6 39.895C46.6284 39.9213 46.6032 39.977 46.5245 40.0622C46.4458 40.1474 46.3923 40.1769 46.3639 40.1507C45.2166 39.1703 44.2327 38.6827 43.412 38.688C42.5771 38.6802 41.7203 39.1522 40.8415 40.1038C40.2906 40.7004 39.9059 41.1741 39.6873 41.5248C39.4687 41.8755 39.4129 42.1924 39.5199 42.4755C39.6259 42.7312 39.8919 43.0558 40.318 43.4493L50.14 52.5189C50.5519 52.8993 50.9103 53.1381 51.2152 53.2355C51.5201 53.3328 51.8392 53.2722 52.1725 53.0537C52.519 52.821 52.9676 52.4063 53.5185 51.8098C53.5578 51.7672 53.6201 51.7852 53.7053 51.8639C53.7906 51.9426 53.8135 52.0032 53.7742 52.0459C53.4331 52.4152 53.0391 52.8276 52.5921 53.2832C52.1451 53.7388 51.6658 54.2436 51.1543 54.7976C50.669 55.3231 50.217 55.8268 49.7984 56.3087C49.3798 56.7905 48.9934 57.2232 48.6393 57.6067C48.6131 57.6351 48.5573 57.61 48.4721 57.5313C48.3869 57.4526 48.3574 57.399 48.3836 57.3706C48.9214 56.7882 49.2925 56.3151 49.4969 55.9513C49.7144 55.5732 49.7625 55.2361 49.6413 54.9399C49.52 54.6438 49.2535 54.3055 48.8415 53.9251L38.9769 44.8161C38.5508 44.4227 38.1995 44.1904 37.9231 44.1193C37.6324 44.0351 37.328 44.1225 37.01 44.3814C36.6919 44.6404 36.2575 45.0681 35.7066 45.6647ZM54.0894 41.1489L53.7991 40.9729C53.8116 39.8466 53.8533 38.9573 53.9242 38.305C53.983 37.6376 54.086 37.1331 54.2331 36.7916C54.3832 36.4228 54.5788 36.1416 54.8199 35.9478C55.1363 35.6934 55.5179 35.5355 55.9646 35.4741C56.4264 35.4005 56.7603 35.4918 56.9662 35.748C57.1237 35.9439 57.1891 36.1641 57.1625 36.4087C57.151 36.6413 57.0247 36.8544 56.7836 37.0482C56.5877 37.2057 56.3735 37.2787 56.141 37.2671C55.9085 37.2556 55.6745 37.2577 55.439 37.2733C55.2035 37.289 54.9652 37.3937 54.7241 37.5875C54.5885 37.6965 54.4757 37.8493 54.3855 38.0458C54.2954 38.2422 54.2313 38.579 54.1932 39.0562C54.1429 39.5183 54.1083 40.2158 54.0894 41.1489ZM56.7983 49.0547C56.7531 49.0911 56.6941 49.064 56.6215 48.9736C56.5488 48.8832 56.5351 48.8198 56.5803 48.7835C57.1679 48.3111 57.4659 47.9103 57.4742 47.5812C57.4854 47.2249 57.2367 46.7303 56.7279 46.0974L53.1304 41.6221C52.7306 41.1249 52.3796 40.8117 52.0774 40.6826C51.7781 40.5263 51.4778 40.5692 51.1764 40.8115C51.0257 40.9326 50.8691 41.1081 50.7066 41.338C50.5592 41.5557 50.3998 41.8203 50.2284 42.1317C50.1803 42.1952 50.1033 42.2075 49.9975 42.1685C49.9068 42.1174 49.8795 42.0525 49.9156 41.9739L51.5381 38.6231C51.5712 38.5717 51.6104 38.5278 51.6556 38.4915C51.761 38.4067 52.0238 38.4559 52.444 38.6391C52.8641 38.8223 53.3164 39.2153 53.8009 39.818L58.0163 45.0618C58.3554 45.4837 58.6746 45.7728 58.9739 45.9291C59.2611 46.0703 59.5932 46.0514 59.9702 45.8724C60.3472 45.6933 60.8446 45.3555 61.4624 44.8589C61.5227 44.8104 61.5891 44.8314 61.6618 44.9218C61.7345 45.0122 61.7407 45.0817 61.6804 45.1301C61.3188 45.4208 60.8833 45.7585 60.3739 46.1432C59.8796 46.5157 59.3612 46.92 58.8188 47.3561C58.427 47.671 58.0563 47.9814 57.7068 48.2872C57.3573 48.5929 57.0545 48.8488 56.7983 49.0547ZM68.8355 27.1894C68.885 27.1591 68.9399 27.1935 69.0004 27.2925C69.0609 27.3915 69.0664 27.4561 69.0169 27.4863C68.6045 27.7384 68.3356 28.0954 68.21 28.5573C68.0845 29.0192 68.1065 29.6855 68.2761 30.5561L70.1724 40.4431C70.5464 42.3897 70.7385 43.983 70.7486 45.223C70.7688 46.4795 70.598 47.479 70.236 48.2213C69.8905 48.9536 69.3631 49.5366 68.6537 49.9701C68.3073 50.1818 67.96 50.2808 67.6117 50.2671C67.2735 50.2698 67.0036 50.1063 66.802 49.7763C66.6507 49.5289 66.6173 49.2888 66.7016 49.056C66.7795 48.8498 66.9174 48.6862 67.1154 48.5652C67.4453 48.3635 67.723 48.2618 67.9484 48.26C68.1739 48.2581 68.3993 48.2563 68.6248 48.2544C68.8502 48.2526 69.0949 48.171 69.3589 48.0097C69.7548 47.7677 70.0183 47.3461 70.1493 46.7449C70.3069 46.1501 70.3279 45.2762 70.2124 44.1233C70.0969 42.9703 69.859 41.4504 69.4987 39.5633L69.8974 40.2713L61.1332 34.7178C60.3267 34.2138 59.7507 33.9201 59.4051 33.8367C59.066 33.7267 58.7398 33.7675 58.4263 33.9591C58.3933 33.9793 58.3466 33.9398 58.2861 33.8409C58.2256 33.7419 58.2119 33.6823 58.2448 33.6622C58.5088 33.5008 58.786 33.3427 59.0765 33.1878C59.3836 33.0228 59.669 32.8597 59.933 32.6984C60.4774 32.3657 60.9507 32.065 61.353 31.7965C61.7554 31.5279 62.1215 31.2928 62.4514 31.0912C62.4844 31.071 62.5311 31.1104 62.5916 31.2094C62.6521 31.3084 62.6659 31.368 62.6329 31.3881C62.105 31.7108 61.7412 32.0238 61.5414 32.3271C61.3581 32.6204 61.4814 32.8963 61.9112 33.1547L69.566 38.0607L69.6169 39.4231L67.7771 30.9631C67.5709 30.0695 67.2501 29.5632 66.8147 29.4441C66.3858 29.2984 65.7342 29.4927 64.8599 30.027C64.8269 30.0472 64.7801 30.0078 64.7197 29.9088C64.6592 29.8098 64.6454 29.7503 64.6784 29.7301C65.0743 29.4881 65.4505 29.2695 65.807 29.0743C66.18 28.869 66.647 28.5949 67.2078 28.2521C67.5708 28.0303 67.8544 27.8456 68.0588 27.6981C68.2796 27.5404 68.5385 27.3709 68.8355 27.1894ZM86.1449 32.2757C85.7086 32.4334 85.2641 32.5119 84.8115 32.511C84.3655 32.5284 83.9561 32.4194 83.5832 32.1841C83.2104 31.9489 82.9221 31.5494 82.7183 30.9858L80.4015 24.5767C80.2437 24.1403 80.0982 23.8229 79.9647 23.6245C79.8313 23.426 79.6548 23.3356 79.435 23.3534C79.2087 23.353 78.8865 23.4283 78.4683 23.5795C78.3956 23.6058 78.3395 23.5644 78.3001 23.4553C78.2541 23.328 78.2674 23.2513 78.3402 23.225C79.0609 22.9439 79.5795 22.5303 79.896 21.9841C80.2307 21.4314 80.3169 20.8452 80.1545 20.2255C80.1348 20.171 80.1886 20.1207 80.3159 20.0747C80.4613 20.0221 80.5439 20.0231 80.5636 20.0776L83.9649 29.4867C84.2344 30.2322 84.6167 30.721 85.1118 30.9532C85.6251 31.1788 86.2271 31.1667 86.9181 30.9169C87.3908 30.7461 87.7827 30.5222 88.0937 30.2453C88.4164 29.9436 88.6598 29.65 88.8238 29.3646C88.8834 29.3019 88.9569 29.3062 89.0443 29.3774C89.1433 29.4238 89.1663 29.4875 89.1133 29.5683C88.6246 30.3206 88.1503 30.9135 87.6903 31.347C87.2419 31.7558 86.7267 32.0654 86.1449 32.2757ZM85.3496 21.8012C84.5748 21.8757 83.8503 22.004 83.176 22.1861C82.5017 22.3681 81.7919 22.5939 81.0464 22.8634L80.8295 22.2634C81.5568 22.0005 82.2469 21.7202 82.9 21.4224C83.553 21.1247 84.2481 20.8015 84.9855 20.4527C85.0219 20.4395 85.0812 20.49 85.1636 20.6042C85.2641 20.7117 85.3473 20.8564 85.413 21.0382C85.459 21.1655 85.4752 21.3241 85.4617 21.514C85.4663 21.6974 85.4289 21.7931 85.3496 21.8012ZM90.8478 30.3163C90.791 30.3283 90.7507 30.2775 90.7267 30.164C90.7027 30.0506 90.719 29.9878 90.7758 29.9758C91.5135 29.8198 91.9698 29.5949 92.1448 29.301C92.3158 28.9881 92.3173 28.4345 92.1493 27.6401L89.0472 12.9715C88.9072 12.3095 88.739 11.8412 88.5426 11.5665C88.3422 11.273 88.0718 11.1622 87.7313 11.2342C87.4476 11.2942 87.0405 11.5186 86.5102 11.9074C86.4425 11.9612 86.3703 11.9469 86.2935 11.8643C86.2317 11.7588 86.2346 11.6791 86.3023 11.6253L89.5336 9.1042C89.5714 9.0962 89.5903 9.0922 89.5903 9.0922C89.5903 9.0922 89.5998 9.0902 89.6187 9.0862C89.6755 9.0742 89.7382 9.09057 89.8069 9.13532C89.8717 9.16115 89.9101 9.20244 89.9221 9.25918L93.7381 27.3041C93.9061 28.0985 94.1316 28.6041 94.4146 28.821C94.6936 29.0188 95.2019 29.0398 95.9396 28.8838C95.9963 28.8718 96.0367 28.9225 96.0607 29.036C96.0847 29.1495 96.0683 29.2123 96.0116 29.2243C95.6711 29.2963 95.2814 29.3688 94.8423 29.4419C94.4033 29.515 93.9284 29.6055 93.4177 29.7135C92.9259 29.8175 92.455 29.927 92.0051 30.0419C91.5551 30.1568 91.1693 30.2483 90.8478 30.3163ZM98.48 28.7023C98.4233 28.7143 98.3829 28.6635 98.3589 28.55C98.3349 28.4365 98.3513 28.3738 98.408 28.3618C99.1457 28.2058 99.602 27.9808 99.777 27.6869C99.948 27.3741 99.9495 26.8205 99.7815 26.0261L98.8274 21.5148C98.3594 19.3018 97.2553 18.3793 95.5152 18.7473C94.8153 18.8953 94.154 19.2723 93.5312 19.8782C92.9045 20.4653 92.4157 21.1911 92.065 22.0557L91.8795 21.7392C92.4718 20.4283 93.1206 19.4315 93.8259 18.7488C94.5502 18.0621 95.3474 17.6267 96.2175 17.4427C97.2578 17.2227 98.1237 17.3459 98.8151 17.8123C99.5026 18.2597 99.9663 19.0509 100.206 20.1858L101.37 25.6901C101.538 26.4845 101.764 26.9901 102.047 27.2069C102.326 27.4048 102.834 27.4258 103.572 27.2698C103.629 27.2578 103.669 27.3085 103.693 27.422C103.717 27.5355 103.701 27.5982 103.644 27.6102C103.303 27.6822 102.914 27.7548 102.475 27.8279C102.035 27.901 101.561 27.9915 101.05 28.0995C100.558 28.2035 100.087 28.313 99.6373 28.4279C99.1873 28.5428 98.8016 28.6343 98.48 28.7023ZM110.758 27.4272C109.561 27.5013 108.542 27.3029 107.699 26.8321C106.855 26.3421 106.204 25.685 105.747 24.8611C105.289 24.0372 105.03 23.1524 104.972 22.2069C104.899 21.0298 105.104 19.9615 105.587 19.0018C106.088 18.0216 106.785 17.2326 107.678 16.635C108.588 16.0168 109.632 15.6713 110.809 15.5983C111.871 15.5326 112.697 15.7429 113.289 16.2292C113.899 16.6951 114.232 17.3718 114.287 18.2594C114.3 18.4717 114.291 18.6369 114.259 18.7551C114.228 18.8732 114.135 18.9371 113.981 18.9467L112.302 19.0507C112.32 18.1004 112.102 17.3875 111.646 16.9121C111.209 16.4162 110.614 16.1916 109.861 16.2382C108.781 16.3051 107.976 16.7618 107.447 17.6081C106.938 18.4532 106.726 19.5704 106.812 20.9597C106.88 22.0596 107.114 23.0233 107.514 23.8509C107.934 24.6772 108.496 25.3203 109.203 25.7801C109.928 26.2195 110.763 26.4099 111.708 26.3514C112.21 26.3203 112.716 26.2114 113.228 26.0248C113.739 25.8381 114.216 25.5664 114.659 25.2097C114.695 25.1687 114.745 25.1947 114.809 25.2876C114.891 25.36 114.915 25.4263 114.88 25.4866C114.222 26.1278 113.554 26.605 112.876 26.9182C112.197 27.2121 111.491 27.3817 110.758 27.4272ZM106.198 19.4869L106.146 19.1124L112.736 18.5589L112.765 19.022L106.198 19.4869ZM138.642 29.9878C138.319 29.9277 137.867 29.4503 137.286 28.5556C136.724 27.6644 136.061 26.42 135.296 24.8225C134.554 23.2095 133.738 21.3074 132.848 19.1162L134.54 18.9002C135.71 21.5957 136.725 23.7511 137.585 25.3663C138.467 26.9661 139.277 28.1592 140.016 28.9456C140.777 29.7166 141.556 30.1763 142.355 30.3249C142.412 30.3355 142.43 30.3978 142.408 30.5119C142.387 30.6259 142.348 30.6776 142.291 30.667C141.341 30.4901 140.561 30.3451 139.953 30.2319C139.364 30.1222 138.927 30.0409 138.642 29.9878ZM134.219 10.64C135.778 10.9301 136.906 11.4743 137.603 12.2726C138.322 13.0555 138.579 13.9981 138.374 15.1005C138.24 15.8228 137.951 16.477 137.508 17.0631C137.068 17.6302 136.526 18.1095 135.883 18.5011C135.243 18.8737 134.526 19.1336 133.732 19.2807C132.957 19.4314 132.17 19.4324 131.372 19.2839C131.182 19.2485 130.963 19.2078 130.716 19.1618C130.491 19.1003 130.286 19.0424 130.099 18.988L128.836 25.7735C128.734 26.3247 128.703 26.7517 128.745 27.0545C128.806 27.3608 128.999 27.5934 129.324 27.7521C129.667 27.9143 130.19 28.0609 130.894 28.1918C130.951 28.2024 130.969 28.2647 130.947 28.3788C130.926 28.4928 130.887 28.5445 130.83 28.5339C130.374 28.449 129.862 28.344 129.296 28.2189C128.748 28.0973 128.142 27.9746 127.476 27.8507C126.849 27.734 126.239 27.6303 125.646 27.5397C125.073 27.4525 124.548 27.3648 124.073 27.2763C124.035 27.2692 124.027 27.2087 124.048 27.0946C124.069 26.9806 124.099 26.9271 124.137 26.9342C124.84 27.0651 125.371 27.1148 125.731 27.0835C126.11 27.0557 126.393 26.9116 126.579 26.6512C126.765 26.3909 126.909 25.9851 127.012 25.4339L129.468 12.2336C129.571 11.6824 129.581 11.2614 129.497 10.9705C129.436 10.6642 129.243 10.4317 128.919 10.273C128.598 10.0952 128.086 9.94094 127.383 9.81005C127.326 9.79943 127.308 9.73711 127.329 9.62307C127.35 9.50903 127.389 9.45731 127.446 9.46792C127.903 9.55282 128.412 9.66734 128.975 9.81148C129.542 9.93661 130.139 10.0575 130.766 10.1743C131.26 10.2663 131.845 10.3456 132.521 10.4124C133.197 10.4792 133.763 10.5551 134.219 10.64ZM136.25 15.7376C136.444 14.6922 136.435 13.8448 136.221 13.1955C136.031 12.5306 135.702 12.0269 135.234 11.6843C134.771 11.3227 134.206 11.08 133.541 10.9562C133.085 10.8713 132.707 10.8403 132.408 10.8633C132.109 10.8863 131.875 11.0297 131.708 11.2936C131.541 11.5574 131.399 12.003 131.283 12.6302L130.232 18.2753C130.491 18.3628 130.771 18.4444 131.071 18.52C131.372 18.5956 131.646 18.6564 131.893 18.7024C133.204 18.9465 134.196 18.846 134.869 18.4009C135.546 17.9368 136.006 17.0491 136.25 15.7376ZM147.453 33.122C146.33 32.7016 145.48 32.1047 144.903 31.3311C144.332 30.5394 144.006 29.674 143.924 28.735C143.842 27.796 143.967 26.8829 144.299 25.9957C144.713 24.8913 145.336 23.9994 146.168 23.3202C147.026 22.6296 147.984 22.1935 149.043 22.012C150.126 21.8191 151.22 21.9295 152.325 22.343C153.321 22.7159 153.99 23.245 154.332 23.9305C154.699 24.6046 154.726 25.3581 154.414 26.191C154.34 26.3902 154.264 26.5373 154.187 26.6323C154.11 26.7274 153.999 26.7478 153.854 26.6936L152.279 26.1038C152.684 25.2437 152.775 24.5037 152.553 23.8839C152.356 23.2526 151.904 22.8048 151.198 22.5404C150.184 22.1608 149.263 22.2495 148.435 22.8065C147.626 23.3704 146.977 24.3041 146.489 25.6077C146.102 26.6397 145.923 27.6151 145.95 28.5338C145.996 29.4592 146.248 30.276 146.705 30.984C147.187 31.6807 147.872 32.1951 148.759 32.5273C149.23 32.7036 149.737 32.8108 150.28 32.849C150.823 32.8872 151.37 32.8338 151.919 32.6887C151.969 32.6661 152.004 32.7102 152.025 32.821C152.07 32.9206 152.064 32.9907 152.008 33.0315C151.146 33.3487 150.341 33.512 149.595 33.5214C148.855 33.5127 148.141 33.3796 147.453 33.122ZM146.528 24.0124L146.633 23.6492L152.876 25.832L152.714 26.2665L146.528 24.0124ZM158.157 38.0644C156.997 37.446 156.182 36.6939 155.712 35.808C155.251 34.9052 155.046 33.9744 155.097 33.0157C155.174 32.049 155.426 31.1647 155.854 30.3628C156.309 29.5098 156.875 28.837 157.554 28.3444C158.25 27.8609 158.994 27.5344 159.785 27.3648C160.577 27.1951 161.369 27.1682 162.161 27.2841C162.954 27.3999 163.666 27.626 164.297 27.9625C164.792 28.2263 165.225 28.5446 165.596 28.9175C165.993 29.2825 166.273 29.6617 166.435 30.0552C166.615 30.4577 166.623 30.8126 166.459 31.1197C166.341 31.3414 166.16 31.4967 165.915 31.5855C165.68 31.6572 165.417 31.6157 165.127 31.4611C164.854 31.3156 164.669 31.1075 164.573 30.8369C164.493 30.5753 164.453 30.3018 164.451 30.0164C164.427 29.6093 164.337 29.2436 164.182 28.9196C164.026 28.5955 163.692 28.297 163.18 28.0242C162.208 27.5058 161.252 27.4895 160.314 27.9753C159.385 28.4441 158.598 29.2841 157.952 30.4954C157.488 31.3655 157.201 32.2532 157.091 33.1585C156.998 34.0729 157.144 34.9286 157.53 35.7258C157.925 36.5058 158.626 37.1642 159.632 37.7007C160.093 37.9463 160.577 38.1276 161.084 38.2446C161.591 38.3616 162.128 38.3626 162.693 38.2476C162.745 38.2317 162.779 38.2715 162.793 38.367C162.825 38.4717 162.815 38.5319 162.763 38.5479C161.884 38.7585 161.077 38.8325 160.344 38.7702C159.619 38.6907 158.89 38.4555 158.157 38.0644ZM164.189 41.0779C164.157 41.056 164.173 40.9973 164.239 40.9016C164.305 40.8059 164.353 40.7689 164.385 40.7908C165.007 41.2168 165.485 41.3917 165.818 41.3155C166.179 41.2342 166.588 40.8586 167.047 40.1886L170.112 35.7144C170.494 35.1562 170.717 34.7112 170.78 34.3795C170.854 34.0319 170.739 33.7543 170.436 33.5467C170.309 33.4593 170.135 33.3874 169.916 33.331C169.708 33.2587 169.446 33.1965 169.13 33.1442C169.056 33.1165 169.022 33.0464 169.028 32.9338C169.062 32.8163 169.114 32.7579 169.183 32.7588L173.277 33.4536C173.336 33.4704 173.373 33.4843 173.389 33.4952C173.421 33.517 173.444 33.5683 173.46 33.6489C173.486 33.7136 173.482 33.7698 173.449 33.8177C173.362 33.9453 173.141 34.2509 172.786 34.7344C172.432 35.218 171.992 35.8426 171.468 36.6082L168.387 41.1063C167.928 41.7763 167.71 42.283 167.733 42.6264C167.782 42.9649 168.126 43.3526 168.764 43.7896C168.812 43.8224 168.803 43.8866 168.737 43.9823C168.672 44.078 168.615 44.1095 168.567 44.0767C168.28 43.8801 167.95 43.6427 167.579 43.3645C167.223 43.0973 166.837 42.8217 166.423 42.5377C166.008 42.2536 165.604 41.9885 165.21 41.7422C164.832 41.5069 164.492 41.2855 164.189 41.0779ZM174.589 30.2042C174.254 29.9748 174.05 29.7068 173.979 29.4002C173.924 29.1046 174.006 28.7973 174.224 28.4783C174.443 28.1592 174.7 27.9721 174.995 27.9168C175.307 27.8724 175.63 27.965 175.965 28.1944C176.284 28.4129 176.471 28.67 176.527 28.9656C176.582 29.2612 176.5 29.5685 176.282 29.8876C175.823 30.5575 175.258 30.663 174.589 30.2042ZM164.835 51.2511C164.792 51.2124 164.809 51.1498 164.886 51.0634C164.963 50.9769 165.024 50.953 165.067 50.9917C165.629 51.4944 166.08 51.7294 166.421 51.6967C166.761 51.6641 167.208 51.3379 167.763 50.7183L176.85 40.5594C177.301 40.055 177.572 39.636 177.663 39.3023C177.754 38.9687 177.655 38.6729 177.367 38.4152C177.223 38.2863 177.024 38.1604 176.771 38.0376C176.545 37.9133 176.271 37.7984 175.951 37.6931C175.867 37.6703 175.836 37.6036 175.857 37.4929C175.891 37.3678 175.95 37.3166 176.034 37.3393L179.457 38.3398C179.514 38.364 179.57 38.4019 179.628 38.4535C179.83 38.634 179.847 38.9479 179.681 39.3953C179.541 39.8412 179.188 40.3812 178.621 41.0152L168.973 51.801C168.612 52.2045 168.385 52.5594 168.293 52.8658C168.215 53.185 168.295 53.516 168.533 53.8588C168.773 54.2288 169.195 54.6845 169.8 55.2258C169.829 55.2516 169.805 55.3077 169.728 55.3942C169.65 55.4806 169.597 55.511 169.568 55.4852C169.194 55.1501 168.775 54.7626 168.313 54.3229C167.864 53.896 167.381 53.4506 166.862 52.9866C166.487 52.6514 166.114 52.33 165.74 52.0221C165.382 51.7272 165.08 51.4702 164.835 51.2511ZM174.764 49.9381C174.216 49.4483 173.791 48.9517 173.489 48.4482C173.188 47.9448 172.938 47.2809 172.742 46.4566L174.108 45.5385C174.086 46.3749 174.171 47.1643 174.363 47.9067C174.555 48.649 175.04 49.3682 175.818 50.0642C176.567 50.7345 177.483 50.9573 178.566 50.7327C179.664 50.521 180.754 49.8099 181.836 48.5995C182.958 47.3458 183.535 46.1499 183.567 45.0116C183.599 43.8734 183.219 42.9498 182.427 42.2409C181.793 41.6738 181.07 41.3512 180.258 41.2732C179.473 41.1937 178.631 41.1927 177.731 41.2702L177.713 40.9426C179.208 40.7497 180.469 40.7617 181.494 40.9784C182.519 41.1952 183.378 41.6129 184.069 42.2316C184.66 42.76 185.066 43.4083 185.287 44.1765C185.52 44.9302 185.524 45.7378 185.298 46.5993C185.073 47.4608 184.579 48.3166 183.819 49.1668C183.033 50.0458 182.211 50.6597 181.354 51.0087C180.512 51.3705 179.665 51.5341 178.814 51.4993C177.991 51.463 177.229 51.3001 176.528 51.0105C175.827 50.7209 175.239 50.3635 174.764 49.9381ZM184.365 59.7727C183.6 58.8502 183.159 57.9097 183.043 56.9515C182.941 55.9809 183.088 55.0678 183.483 54.2123C183.879 53.3567 184.441 52.6265 185.17 52.0216C186.078 51.2687 187.062 50.8043 188.121 50.6285C189.209 50.4552 190.257 50.5529 191.266 50.9215C192.302 51.2927 193.197 51.9321 193.95 52.8398C194.629 53.6582 194.946 54.4498 194.902 55.2146C194.886 55.982 194.535 56.6495 193.851 57.2173C193.687 57.3531 193.548 57.4431 193.434 57.4874C193.32 57.5317 193.214 57.4943 193.115 57.3753L192.041 56.0807C192.82 55.5354 193.267 54.9386 193.382 54.2903C193.525 53.6446 193.355 53.0315 192.874 52.4512C192.183 51.6179 191.339 51.2373 190.344 51.3093C189.361 51.3962 188.334 51.884 187.263 52.7727C186.414 53.4763 185.774 54.2335 185.342 55.0445C184.921 55.8703 184.734 56.7041 184.779 57.5458C184.851 58.3901 185.19 59.1768 185.795 59.9059C186.116 60.2928 186.502 60.6378 186.955 60.9408C187.407 61.2438 187.908 61.469 188.457 61.6162C188.511 61.6213 188.52 61.677 188.482 61.7834C188.472 61.8923 188.433 61.9504 188.363 61.9576C187.458 61.8046 186.678 61.5466 186.026 61.1837C185.388 60.8085 184.834 60.3382 184.365 59.7727ZM188.09 51.4082L188.362 51.1451L192.695 56.1416L192.338 56.4379L188.09 51.4082Z" fill="#1B0905"/>
<g clip-path="url(#clip0_158_933)">
<path d="M115.744 189.742C156.613 189.742 189.744 156.611 189.744 115.742C189.744 74.8731 156.613 41.7422 115.744 41.7422C74.8746 41.7422 41.7437 74.8731 41.7437 115.742C41.7437 156.611 74.8746 189.742 115.744 189.742Z" fill="#901825"/>
<path d="M77.5933 115.546C98.2349 110.716 110.489 98.3804 115.434 77.7224C115.515 77.3634 116.005 77.3634 116.103 77.7224C120.965 98.3151 133.285 110.619 153.91 115.514C154.269 115.595 154.269 116.085 153.91 116.183C133.236 121.111 120.851 133.463 116.184 153.746C116.103 154.088 115.646 154.105 115.515 153.795C106.1 128.91 99.8504 122.677 77.5933 116.232C77.2506 116.134 77.2506 115.644 77.6096 115.563L77.5933 115.546Z" fill="#B1DAFA"/>
</g>
<defs>
<clipPath id="clip0_158_933">
<rect width="148" height="148" fill="white" transform="translate(41.7437 41.7422)"/>
</clipPath>
</defs>
</svg>
